<svg xmlns="http://www.w3.org/2000/svg" viewBox="0 0 120 100" width="120" height="100">
  <path d="M35 75 C15 55, 5 42, 5 30 C5 18, 12 10, 21 10 C26.5 10, 32 13, 35 19 C38 13, 43.5 10, 49 10 C58 10, 65 18, 65 30 C65 42, 55 55, 35 75 Z" fill="#FFB6C1" stroke="#FF69B4" stroke-width="2"/>
  <path d="M85 75 C65 55, 55 42, 55 30 C55 18, 62 10, 71 10 C76.5 10, 82 13, 85 19 C88 13, 93.5 10, 99 10 C108 10, 115 18, 115 30 C115 42, 105 55, 85 75 Z" fill="#FF69B4" stroke="#FF1493" stroke-width="2"/>
</svg>
